<?xml version="1.0" encoding="utf-8"?>
<!-- Generator: Adobe Illustrator 15.1.0, SVG Export Plug-In . SVG Version: 6.00 Build 0)  -->
<!DOCTYPE svg PUBLIC "-//W3C//DTD SVG 1.1//EN" "http://www.w3.org/Graphics/SVG/1.1/DTD/svg11.dtd">
<svg version="1.1" id="Layer_1" xmlns="http://www.w3.org/2000/svg" xmlns:xlink="http://www.w3.org/1999/xlink" x="0px" y="0px"
	 width="870px" height="900px" viewBox="0 0 870 900" enable-background="new 0 0 870 900" xml:space="preserve">
<g>
	<defs>
		<rect id="SVGID_1_" width="870" height="900"/>
	</defs>
	<clipPath id="SVGID_2_">
		<use xlink:href="#SVGID_1_"  overflow="visible"/>
	</clipPath>
	<path clip-path="url(#SVGID_2_)" fill="#333333" d="M403.456,348.129v19.975h-7.99v22.971h7.99v32.958h-17.977v17.977h-8.989v6.314
		c-0.998-0.865-2.763-1.386-4.267-1.386c-3.552,0-6.719,2.879-6.719,6.431v9.344l-33.785,15.361
		c-0.879-0.291-1.788-0.455-2.763-0.455c-4.896,0-8.852,3.969-8.852,8.863c0,4.421,3.246,8.074,7.477,8.744l26.492,64.93
		l8.507-3.471l-26.487-64.928c1.095-1.475,1.752-3.296,1.752-5.275c0-0.354-0.078-0.703-0.119-1.047l27.778-12.636v3.84
		c0,3.552,3.167,6.43,6.719,6.43c1.504,0,3.269-0.521,4.267-1.387v77.18h8.715h99.209h8.929v-76.753
		c0.998,0.605,2.226,0.96,3.462,0.96c3.551,0,6.525-2.878,6.525-6.43v-3.761l27.691,12.557c-0.04,0.344-0.05,0.692-0.05,1.047
		c0,1.979,0.664,3.801,1.76,5.275l-26.483,64.928l8.509,3.471l26.487-64.93c4.232-0.67,7.472-4.323,7.472-8.744
		c0-4.895-3.969-8.863-8.864-8.863c-0.976,0-1.946,0.164-2.824,0.455L503.33,462.79v-9.421c0-3.552-2.975-6.431-6.525-6.431
		c-1.236,0-2.464,0.356-3.462,0.962v-5.89h-8.989v-17.977h-16.979v-32.958h7.99v-22.971h-7.99v-19.975"/>
	<path clip-path="url(#SVGID_2_)" fill="#F15A24" d="M378.488,454.287v73.488l4.036-1.198
		C382.524,526.577,379.487,489.04,378.488,454.287"/>
	<path clip-path="url(#SVGID_2_)" fill="#F15A24" d="M490.346,454.287v73.488l-4.034-1.198
		C486.312,526.577,489.348,489.04,490.346,454.287"/>
	<path clip-path="url(#SVGID_2_)" fill="#F15A24" d="M431.7,370.486c0,3.342-5.091,6.051-11.369,6.051
		c-6.278,0-11.367-2.709-11.367-6.051c0-3.341,5.089-6.051,11.367-6.051C426.609,364.436,431.7,367.146,431.7,370.486"/>
	<path clip-path="url(#SVGID_2_)" fill="#F15A24" d="M462.319,370.486c0,3.342-5.09,6.051-11.367,6.051
		c-6.279,0-11.368-2.709-11.368-6.051c0-3.341,5.089-6.051,11.368-6.051C457.229,364.436,462.319,367.146,462.319,370.486"/>
	<path clip-path="url(#SVGID_2_)" fill="#F9F9EA" d="M431.7,368.649c0,3.341-5.091,6.05-11.369,6.05
		c-6.278,0-11.367-2.709-11.367-6.05c0-3.342,5.089-6.051,11.367-6.051C426.609,362.599,431.7,365.308,431.7,368.649"/>
	<path clip-path="url(#SVGID_2_)" fill="#F9F9EA" d="M462.319,368.649c0,3.341-5.09,6.05-11.367,6.05
		c-6.279,0-11.368-2.709-11.368-6.05c0-3.342,5.089-6.051,11.368-6.051C457.229,362.599,462.319,365.308,462.319,368.649"/>
	<path clip-path="url(#SVGID_2_)" fill="#F15A24" d="M458.58,413.562c-14.296-5.921-30.356-5.921-44.651,0
		c-1.016-2.452-2.031-4.903-3.047-7.355c16.246-6.729,34.499-6.729,50.744,0C460.61,408.659,459.595,411.11,458.58,413.562"/>
	<path clip-path="url(#SVGID_2_)" fill="#F9F9EA" d="M458.58,412.337c-14.296-5.921-30.356-5.921-44.651,0
		c-1.016-2.452-2.031-4.904-3.047-7.355c16.246-6.73,34.499-6.73,50.744,0C460.61,407.434,459.595,409.885,458.58,412.337"/>
	<path clip-path="url(#SVGID_2_)" fill="#F9F9EA" d="M313.422,536.849c38.616-15.576,79.308-23.472,120.995-23.472
		s82.377,7.896,120.994,23.472l-16.405,39.608c-33.388-13.413-68.561-20.213-104.588-20.213c-36.029,0-71.201,6.8-104.588,20.213
		L313.422,536.849z"/>
	<path clip-path="url(#SVGID_2_)" fill="#333333" d="M434.417,516.439c40.26,0,79.584,7.437,116.977,22.107l-14.064,33.955
		c-32.912-12.822-67.501-19.318-102.912-19.318s-70,6.496-102.913,19.318l-7.055-17.035l-7.009-16.92
		C354.834,523.876,394.158,516.439,434.417,516.439 M434.417,510.314c-42.491,0-84.982,8.288-125,24.864
		c6.249,15.088,12.499,30.175,18.748,45.264c34.016-14.09,70.134-21.136,106.252-21.136s72.236,7.046,106.252,21.136
		c6.25-15.089,12.499-30.176,18.748-45.264C519.399,518.603,476.908,510.314,434.417,510.314"/>
	<path clip-path="url(#SVGID_2_)" fill="#F15A24" d="M339.242,556.841c0,2.228-1.806,4.034-4.034,4.034s-4.034-1.807-4.034-4.034
		s1.806-4.033,4.034-4.033S339.242,554.613,339.242,556.841"/>
	<path clip-path="url(#SVGID_2_)" fill="#F15A24" d="M537.66,556.841c0,2.228-1.806,4.034-4.034,4.034
		c-2.228,0-4.033-1.807-4.033-4.034s1.806-4.033,4.033-4.033C535.854,552.808,537.66,554.613,537.66,556.841"/>
	<path clip-path="url(#SVGID_2_)" fill="#333333" d="M339.242,555.616c0,2.228-1.806,4.034-4.034,4.034s-4.034-1.807-4.034-4.034
		s1.806-4.034,4.034-4.034S339.242,553.389,339.242,555.616"/>
	<path clip-path="url(#SVGID_2_)" fill="#333333" d="M537.66,555.616c0,2.228-1.806,4.034-4.034,4.034
		c-2.228,0-4.033-1.807-4.033-4.034s1.806-4.034,4.033-4.034C535.854,551.582,537.66,553.389,537.66,555.616"/>
	<polygon clip-path="url(#SVGID_2_)" fill="#333333" points="431.464,348.129 436.407,329.414 441.351,348.129 	"/>
	<path clip-path="url(#SVGID_2_)" fill="#333333" d="M443.296,326.393c0,3.775-3.06,6.835-6.835,6.835
		c-3.774,0-6.835-3.06-6.835-6.835c0-3.774,3.061-6.835,6.835-6.835C440.236,319.558,443.296,322.619,443.296,326.393"/>
	<path clip-path="url(#SVGID_2_)" fill="#F15A24" d="M440.523,323.247c-0.858-0.634-1.923-1.013-3.07-1.013
		c-2.847,0-5.15,2.308-5.15,5.15c0,1.151,0.378,2.213,1.013,3.07c-1.264-0.937-2.079-2.441-2.079-4.136
		c0-2.842,2.303-5.151,5.149-5.151C438.077,321.167,439.58,321.982,440.523,323.247"/>
	<path clip-path="url(#SVGID_2_)" fill="#F15A24" d="M366.899,472.889c0,0-0.536,11.788,8.65,7.809
		C375.549,480.697,367.588,482.074,366.899,472.889"/>
	<path clip-path="url(#SVGID_2_)" fill="#F15A24" d="M331.304,479.549c0,0-10.028-1.99-10.182,9.033
		C321.122,488.582,323.189,479.396,331.304,479.549"/>
	<path clip-path="url(#SVGID_2_)" fill="#F15A24" d="M502.471,472.889c0,0,0.535,11.788-8.65,7.809
		C493.82,480.697,501.781,482.074,502.471,472.889"/>
	<path clip-path="url(#SVGID_2_)" fill="#F15A24" d="M537.454,479.549c0,0,10.027-1.99,10.181,9.033
		C547.635,488.582,545.568,479.396,537.454,479.549"/>
	<path clip-path="url(#SVGID_2_)" fill="#F15A24" d="M405.305,424.075c0,0,27.482-5.92,60.652,0
		C465.957,424.075,435.187,420.809,405.305,424.075"/>
	<path clip-path="url(#SVGID_2_)" fill="#F15A24" d="M451.808,474.443c0,9.358-7.586,16.943-16.944,16.943
		c-9.357,0-16.943-7.585-16.943-16.943c0-9.357,7.586-16.942,16.943-16.942C444.222,457.501,451.808,465.086,451.808,474.443"/>
	<path clip-path="url(#SVGID_2_)" fill="#CCCCCC" d="M467.605,500.36c-6.985,0-22.302-7.178-38.116-17.86
		c-20.323-13.73-33.882-27.98-30.868-32.441c0.597-0.884,1.775-1.332,3.501-1.332c6.985,0,22.303,7.177,38.117,17.86
		c20.322,13.731,33.881,27.98,30.867,32.44C470.509,499.912,469.332,500.36,467.605,500.36 M402.123,449.339
		c-1.51,0-2.517,0.357-2.993,1.063c-2.728,4.038,11.332,18.504,30.702,31.59c15.721,10.621,30.902,17.756,37.774,17.756
		c1.511,0,2.518-0.356,2.994-1.062c2.728-4.038-11.333-18.504-30.703-31.59C424.176,456.475,408.996,449.339,402.123,449.339"/>
	<path clip-path="url(#SVGID_2_)" fill="#CCCCCC" d="M402.124,500.36L402.124,500.36c-1.727,0-2.905-0.448-3.502-1.333
		c-3.014-4.46,10.546-18.709,30.868-32.44c15.814-10.683,31.131-17.86,38.116-17.86c1.727,0,2.903,0.448,3.501,1.332
		c3.014,4.461-10.545,18.711-30.867,32.441C424.426,493.182,409.108,500.36,402.124,500.36 M467.605,449.339
		c-6.872,0-22.053,7.136-37.773,17.757c-19.371,13.086-33.431,27.552-30.703,31.59c0.476,0.705,1.483,1.062,2.993,1.062
		c6.873,0.001,22.052-7.135,37.774-17.756c19.37-13.086,33.431-27.552,30.703-31.59
		C470.123,449.696,469.116,449.339,467.605,449.339"/>
	<path clip-path="url(#SVGID_2_)" fill="#FFFFFF" d="M441.374,479.962h-4.506l-2.528-2.996h-0.922v2.996h-3.995v-11.984h8.279
		c0.525,0,0.869,0.217,1.235,0.548c0.381,0.342,0.474,0.833,0.474,1.326v4.905c0,0.51-0.092,0.96-0.474,1.302
		c-0.112,0.102-0.179-0.007-0.306,0.064L441.374,479.962z M437.523,478.963h1.563l-2.528-3.994h1.145c0.219,0,0.39,0.123,0.53-0.002
		c0.123-0.111,0.18-0.046,0.18-0.21v-4.905c0-0.146-0.057-0.418-0.18-0.529c-0.141-0.126-0.312-0.347-0.53-0.347h-7.28v9.987h1.998
		v-3.994h2.575L437.523,478.963z M437.413,473.97h-4.993v-3.995h4.993V473.97z M433.418,472.971h1.998v-0.999h-1.998V472.971z"/>
	<path clip-path="url(#SVGID_2_)" fill="#333333" d="M437.195,479.962l-2.527-3.995h-2.248v3.995h-1.998v-10.986h7.28
		c0.37,0,0.88-0.03,1.132,0.198c0.254,0.227,0.577,0.358,0.577,0.678v4.905c0,0.338-0.323,0.619-0.577,0.847
		c-0.252,0.228-0.663,0.454-1.033,0.454l2.428,3.904H437.195z M432.42,473.97h3.994v-2.996h-3.994V473.97z"/>
	<path clip-path="url(#SVGID_2_)" fill="#F15A24" d="M353.04,542.875c0.373-0.137,0.747-0.144,1.121-0.019
		c0.373,0.125,0.622,0.36,0.746,0.703c1.07,2.947,2.14,5.895,3.208,8.841c0.125,0.344,0.089,0.676-0.105,0.999
		c-0.193,0.322-0.467,0.549-0.821,0.681c-2.62,0.971-5.226,1.992-7.817,3.065c-1.524-3.68-3.048-7.359-4.572-11.039
		C347.531,544.976,350.278,543.898,353.04,542.875 M348.581,547.344c0.263,0.661,0.526,1.32,0.79,1.981
		c1.298-0.519,2.599-1.024,3.905-1.517c-0.252-0.665-0.503-1.329-0.754-1.994C351.205,546.312,349.891,546.82,348.581,547.344
		 M354.947,552.233c-0.254-0.674-0.509-1.348-0.763-2.021c-1.29,0.486-2.577,0.987-3.861,1.498c0.268,0.669,0.534,1.338,0.801,2.007
		C352.396,553.211,353.67,552.717,354.947,552.233"/>
	<path clip-path="url(#SVGID_2_)" fill="#F15A24" d="M363.776,551.758c-0.919,0.309-1.837,0.622-2.753,0.943
		c-1.314-3.76-2.628-7.521-3.942-11.28c0.966-0.337,1.933-0.669,2.902-0.993C361.249,544.205,362.512,547.981,363.776,551.758"/>
	<path clip-path="url(#SVGID_2_)" fill="#F15A24" d="M370.553,541.375c-0.142-0.49-0.283-0.98-0.424-1.472
		c-1.383,0.398-2.762,0.81-4.138,1.235c0.677,2.194,1.354,4.389,2.032,6.583c1.335-0.411,2.673-0.812,4.013-1.197
		c-0.139-0.481-0.277-0.962-0.416-1.444c-0.578,0.166-1.156,0.335-1.734,0.507c-0.241-0.813-0.482-1.626-0.723-2.438
		c1.529-0.454,3.063-0.892,4.599-1.313c0.224,0.817,0.448,1.635,0.672,2.452c0.243,0.887,0.486,1.774,0.73,2.663
		c0.097,0.353,0.04,0.683-0.166,0.996c-0.206,0.312-0.498,0.521-0.877,0.627c-2.249,0.631-4.489,1.3-6.721,2.004
		c-0.377,0.119-0.737,0.105-1.081-0.042c-0.344-0.148-0.573-0.395-0.684-0.742c-0.964-2.984-1.927-5.968-2.89-8.951
		c-0.112-0.346-0.065-0.683,0.142-1.008c0.208-0.325,0.511-0.551,0.908-0.676c2.353-0.743,4.716-1.447,7.086-2.113
		c0.4-0.112,0.776-0.09,1.127,0.069c0.35,0.158,0.574,0.413,0.67,0.765c0.246,0.897,0.491,1.793,0.737,2.689
		C372.459,540.833,371.505,541.102,370.553,541.375"/>
	<path clip-path="url(#SVGID_2_)" fill="#F15A24" d="M392.279,544.291c-1.174-1.167-2.364-2.324-3.571-3.474
		c-0.689,0.142-1.379,0.286-2.067,0.435c0.287,1.336,0.574,2.673,0.861,4.01c-0.941,0.202-1.881,0.41-2.82,0.625
		c-0.887-3.883-1.774-7.766-2.661-11.648c2.854-0.652,5.717-1.25,8.588-1.793c0.425-0.08,0.806-0.025,1.141,0.163
		c0.334,0.189,0.531,0.454,0.593,0.795c0.317,1.738,0.635,3.479,0.951,5.219c0.066,0.358-0.02,0.685-0.256,0.978
		c-0.237,0.294-0.56,0.478-0.971,0.557c1.188,1.166,2.36,2.342,3.516,3.527C394.481,543.877,393.379,544.08,392.279,544.291
		 M386.107,538.766c1.346-0.289,2.693-0.564,4.043-0.83c-0.177-0.903-0.354-1.807-0.531-2.71c-1.366,0.268-2.73,0.548-4.092,0.839
		C385.72,536.966,385.914,537.865,386.107,538.766"/>
	<path clip-path="url(#SVGID_2_)" fill="#F15A24" d="M405.449,542.176c-2.309,0.301-4.615,0.637-6.915,1.009
		c-0.387,0.063-0.737,0-1.052-0.188c-0.315-0.187-0.504-0.46-0.565-0.819c-0.523-3.102-1.045-6.201-1.569-9.303
		c-0.057-0.34,0.038-0.657,0.288-0.947c0.25-0.292,0.579-0.472,0.987-0.537c2.425-0.394,4.855-0.748,7.289-1.063
		c0.408-0.053,0.775,0.025,1.097,0.232c0.322,0.208,0.505,0.484,0.546,0.827c0.384,3.121,0.769,6.242,1.153,9.362
		c0.045,0.362-0.058,0.678-0.305,0.948C406.154,541.968,405.836,542.125,405.449,542.176 M399.58,540.444
		c1.36-0.211,2.721-0.41,4.084-0.596c-0.309-2.267-0.618-4.533-0.927-6.801c-1.405,0.192-2.808,0.397-4.21,0.615
		C398.878,535.923,399.229,538.184,399.58,540.444"/>
	<path clip-path="url(#SVGID_2_)" fill="#F15A24" d="M416.704,529.026c0.391-0.029,0.747,0.068,1.067,0.294
		c0.319,0.225,0.492,0.52,0.516,0.883c0.211,3.128,0.422,6.257,0.632,9.385c0.024,0.363-0.1,0.674-0.372,0.93
		c-0.271,0.256-0.592,0.398-0.963,0.424c-2.745,0.204-5.487,0.457-8.225,0.764c-0.442-3.959-0.884-7.917-1.326-11.875
		C410.92,529.509,413.81,529.24,416.704,529.026 M411.271,532.074c0.069,0.708,0.139,1.416,0.209,2.123
		c1.367-0.136,2.736-0.256,4.105-0.368c-0.057-0.708-0.114-1.416-0.171-2.125C414.032,531.816,412.651,531.939,411.271,532.074
		 M415.964,538.545c-0.058-0.719-0.116-1.438-0.173-2.153c-1.354,0.108-2.707,0.229-4.059,0.362c0.07,0.717,0.141,1.434,0.211,2.151
		C413.283,538.772,414.623,538.653,415.964,538.545"/>
	<path clip-path="url(#SVGID_2_)" fill="#F15A24" d="M429.785,540.381c-2.323,0.043-4.646,0.122-6.967,0.237
		c-0.391,0.02-0.731-0.081-1.022-0.302c-0.292-0.222-0.449-0.515-0.47-0.878c-0.177-3.14-0.354-6.278-0.532-9.419
		c-0.019-0.344,0.111-0.648,0.39-0.91c0.28-0.262,0.626-0.403,1.037-0.424c2.447-0.123,4.895-0.207,7.344-0.252
		c0.412-0.008,0.767,0.111,1.064,0.354c0.297,0.241,0.446,0.535,0.45,0.882c0.037,3.144,0.075,6.288,0.113,9.432
		c0.004,0.365-0.133,0.668-0.408,0.908C430.508,540.25,430.176,540.374,429.785,540.381 M424.156,538.011
		c1.372-0.06,2.743-0.106,4.116-0.142c-0.057-2.286-0.115-4.572-0.172-6.859c-1.414,0.035-2.828,0.083-4.242,0.145
		C423.958,533.44,424.057,535.726,424.156,538.011"/>
	<path clip-path="url(#SVGID_2_)" fill="#F15A24" d="M442.171,531.062c-0.979-0.035-1.957-0.064-2.936-0.088
		c-0.074,3.144-0.148,6.287-0.222,9.43c-0.957-0.021-1.913-0.037-2.87-0.048c0.032-3.144,0.064-6.288,0.098-9.433
		c-0.979-0.01-1.959-0.015-2.938-0.012l-0.006-2.517c2.989-0.006,5.977,0.045,8.964,0.152
		C442.231,529.386,442.2,530.223,442.171,531.062"/>
	<path clip-path="url(#SVGID_2_)" fill="#F15A24" d="M460.471,532.456c-0.974-0.114-1.947-0.222-2.923-0.322
		c-0.324,3.127-0.647,6.255-0.972,9.384c-0.952-0.101-1.906-0.192-2.861-0.277c0.283-3.133,0.566-6.263,0.85-9.396
		c-0.977-0.089-1.953-0.171-2.928-0.246c0.064-0.836,0.128-1.672,0.193-2.508c2.982,0.23,5.96,0.52,8.933,0.866
		C460.665,530.789,460.568,531.623,460.471,532.456"/>
	<path clip-path="url(#SVGID_2_)" fill="#F15A24" d="M469.674,543.271c-2.3-0.379-4.604-0.72-6.912-1.026
		c-0.388-0.051-0.705-0.21-0.953-0.48c-0.247-0.271-0.349-0.586-0.303-0.949c0.392-3.119,0.783-6.239,1.175-9.359
		c0.043-0.342,0.226-0.618,0.549-0.825c0.322-0.206,0.689-0.284,1.098-0.229c2.434,0.321,4.863,0.681,7.286,1.08
		c0.408,0.066,0.737,0.246,0.985,0.539c0.25,0.291,0.345,0.609,0.287,0.949c-0.53,3.099-1.062,6.198-1.592,9.298
		c-0.062,0.359-0.252,0.632-0.566,0.819C470.411,543.272,470.062,543.334,469.674,543.271 M464.552,539.921
		c1.362,0.189,2.724,0.393,4.084,0.606c0.355-2.261,0.713-4.52,1.068-6.779c-1.401-0.221-2.805-0.429-4.209-0.624L464.552,539.921z"
		/>
	<path clip-path="url(#SVGID_2_)" fill="#F15A24" d="M481.049,539.854c-0.38,1.783-0.761,3.565-1.141,5.348
		c-0.941-0.199-1.884-0.395-2.826-0.584c0.356-1.786,0.714-3.574,1.07-5.362c-1.114-2.425-2.277-4.844-3.485-7.252
		c1.365,0.242,2.729,0.499,4.089,0.767c0.537,1.099,1.063,2.2,1.579,3.302c0.901-0.81,1.813-1.613,2.731-2.413
		c1.357,0.295,2.712,0.602,4.066,0.919C485.063,536.311,483.036,538.07,481.049,539.854"/>
	<path clip-path="url(#SVGID_2_)" fill="#F15A24" d="M501.457,542.696c0.148-0.479,0.297-0.957,0.444-1.437
		c-1.17-0.362-2.342-0.715-3.516-1.058c-0.641,2.195-1.283,4.391-1.925,6.587c1.139,0.332,2.276,0.674,3.411,1.026
		c0.147-0.479,0.297-0.958,0.444-1.437c0.941,0.291,1.882,0.59,2.82,0.894c-0.284,0.877-0.567,1.751-0.852,2.627
		c-0.112,0.347-0.341,0.59-0.683,0.728c-0.341,0.139-0.708,0.146-1.104,0.021c-2.033-0.644-4.074-1.258-6.123-1.843
		c-0.397-0.112-0.694-0.32-0.893-0.62c-0.197-0.303-0.249-0.629-0.15-0.98c0.839-3.021,1.68-6.04,2.52-9.062
		c0.098-0.351,0.316-0.607,0.658-0.767s0.723-0.181,1.143-0.061c2.157,0.614,4.311,1.262,6.455,1.941
		c0.416,0.132,0.729,0.362,0.935,0.687c0.208,0.325,0.254,0.662,0.142,1.009c-0.286,0.884-0.572,1.769-0.86,2.651
		C503.37,543.296,502.415,542.992,501.457,542.696"/>
	<path clip-path="url(#SVGID_2_)" fill="#F15A24" d="M512.193,554.717c-2.208-0.839-4.426-1.641-6.653-2.405
		c-0.375-0.129-0.656-0.349-0.849-0.665c-0.191-0.315-0.23-0.645-0.115-0.991c1.003-2.98,2.004-5.961,3.006-8.94
		c0.11-0.328,0.346-0.563,0.706-0.699c0.36-0.139,0.738-0.141,1.134-0.004c2.348,0.806,4.686,1.65,7.013,2.535
		c0.391,0.147,0.683,0.391,0.872,0.729c0.189,0.336,0.222,0.667,0.097,0.988c-1.135,2.934-2.271,5.866-3.406,8.798
		c-0.132,0.34-0.372,0.569-0.723,0.688S512.564,554.857,512.193,554.717 M507.771,550.395c1.313,0.46,2.623,0.934,3.93,1.421
		c0.799-2.145,1.596-4.289,2.394-6.433c-1.348-0.501-2.698-0.989-4.052-1.464C509.286,546.077,508.528,548.235,507.771,550.395"/>
	<path clip-path="url(#SVGID_2_)" fill="#F15A24" d="M519.286,554.797c-0.324,0.782-0.648,1.566-0.973,2.349
		c-0.736-0.305-1.472-0.604-2.21-0.901c0.316-0.786,0.631-1.574,0.947-2.36C517.798,554.185,518.543,554.487,519.286,554.797"/>
	<path clip-path="url(#SVGID_2_)" fill="#333333" d="M353.04,541.65c0.373-0.138,0.747-0.145,1.121-0.019
		c0.373,0.125,0.622,0.361,0.746,0.702c1.07,2.947,2.14,5.895,3.208,8.842c0.125,0.343,0.089,0.676-0.105,0.999
		c-0.193,0.323-0.467,0.55-0.821,0.68c-2.62,0.971-5.226,1.993-7.817,3.065c-1.524-3.679-3.048-7.358-4.572-11.038
		C347.531,543.75,350.278,542.674,353.04,541.65 M348.581,546.119c0.263,0.661,0.526,1.32,0.79,1.981
		c1.298-0.52,2.599-1.024,3.905-1.516c-0.252-0.665-0.503-1.331-0.754-1.996C351.205,545.087,349.891,545.597,348.581,546.119
		 M354.947,551.009c-0.254-0.674-0.509-1.348-0.763-2.021c-1.29,0.487-2.577,0.986-3.861,1.5c0.268,0.667,0.534,1.336,0.801,2.005
		C352.396,551.986,353.67,551.491,354.947,551.009"/>
	<path clip-path="url(#SVGID_2_)" fill="#333333" d="M363.776,550.533c-0.919,0.308-1.837,0.622-2.753,0.942l-3.942-11.279
		c0.966-0.338,1.933-0.669,2.902-0.993C361.249,542.979,362.512,546.756,363.776,550.533"/>
	<path clip-path="url(#SVGID_2_)" fill="#333333" d="M370.553,540.151c-0.142-0.491-0.283-0.982-0.424-1.473
		c-1.383,0.397-2.762,0.81-4.138,1.234c0.677,2.194,1.354,4.39,2.032,6.584c1.335-0.412,2.673-0.811,4.013-1.197
		c-0.139-0.481-0.277-0.962-0.416-1.444c-0.578,0.166-1.156,0.336-1.734,0.508c-0.241-0.813-0.482-1.627-0.723-2.438
		c1.529-0.455,3.063-0.892,4.599-1.313c0.224,0.817,0.448,1.635,0.672,2.452c0.243,0.888,0.486,1.775,0.73,2.664
		c0.097,0.352,0.04,0.684-0.166,0.995c-0.206,0.313-0.498,0.521-0.877,0.629c-2.249,0.631-4.489,1.299-6.721,2.004
		c-0.377,0.119-0.737,0.104-1.081-0.044c-0.344-0.148-0.573-0.394-0.684-0.741c-0.964-2.984-1.927-5.967-2.89-8.951
		c-0.112-0.347-0.065-0.683,0.142-1.008c0.208-0.325,0.511-0.551,0.908-0.676c2.353-0.743,4.716-1.447,7.086-2.113
		c0.4-0.112,0.776-0.09,1.127,0.068c0.35,0.158,0.574,0.414,0.67,0.766c0.246,0.896,0.491,1.793,0.737,2.689
		C372.459,539.608,371.505,539.876,370.553,540.151"/>
	<path clip-path="url(#SVGID_2_)" fill="#333333" d="M392.279,543.065c-1.174-1.166-2.364-2.324-3.571-3.473
		c-0.689,0.142-1.379,0.285-2.067,0.434c0.287,1.337,0.574,2.675,0.861,4.011c-0.941,0.202-1.881,0.409-2.82,0.624
		c-0.887-3.883-1.774-7.767-2.661-11.648c2.854-0.652,5.717-1.249,8.588-1.791c0.425-0.081,0.806-0.026,1.141,0.161
		c0.334,0.189,0.531,0.455,0.593,0.795c0.317,1.74,0.635,3.479,0.951,5.22c0.066,0.358-0.02,0.685-0.256,0.978
		c-0.237,0.294-0.56,0.479-0.971,0.557c1.188,1.167,2.36,2.342,3.516,3.527C394.481,542.653,393.379,542.854,392.279,543.065
		 M386.107,537.541c1.346-0.289,2.693-0.565,4.043-0.83c-0.177-0.903-0.354-1.807-0.531-2.71c-1.366,0.268-2.73,0.547-4.092,0.84
		C385.72,535.741,385.914,536.641,386.107,537.541"/>
	<path clip-path="url(#SVGID_2_)" fill="#333333" d="M405.449,540.951c-2.309,0.301-4.615,0.636-6.915,1.009
		c-0.387,0.063-0.737,0.001-1.052-0.187c-0.315-0.188-0.504-0.462-0.565-0.82c-0.523-3.102-1.045-6.201-1.569-9.303
		c-0.057-0.34,0.038-0.657,0.288-0.948c0.25-0.292,0.579-0.471,0.987-0.536c2.425-0.394,4.855-0.748,7.289-1.063
		c0.408-0.053,0.775,0.024,1.097,0.232c0.322,0.209,0.505,0.483,0.546,0.827c0.384,3.121,0.769,6.243,1.153,9.363
		c0.045,0.361-0.058,0.677-0.305,0.947C406.154,540.742,405.836,540.901,405.449,540.951 M399.58,539.219
		c1.36-0.211,2.721-0.409,4.084-0.595c-0.309-2.267-0.618-4.533-0.927-6.8c-1.405,0.191-2.808,0.396-4.21,0.614
		C398.878,534.698,399.229,536.959,399.58,539.219"/>
	<path clip-path="url(#SVGID_2_)" fill="#333333" d="M416.704,527.802c0.391-0.029,0.747,0.07,1.067,0.295
		c0.319,0.224,0.492,0.519,0.516,0.881c0.211,3.129,0.422,6.257,0.632,9.385c0.024,0.365-0.1,0.674-0.372,0.931
		c-0.271,0.256-0.592,0.398-0.963,0.426c-2.745,0.201-5.487,0.455-8.225,0.762c-0.442-3.959-0.884-7.917-1.326-11.875
		C410.92,528.283,413.81,528.017,416.704,527.802 M411.271,530.85c0.069,0.707,0.139,1.415,0.209,2.123
		c1.367-0.136,2.736-0.256,4.105-0.367c-0.057-0.709-0.114-1.417-0.171-2.126C414.032,530.59,412.651,530.714,411.271,530.85
		 M415.964,537.32c-0.058-0.719-0.116-1.436-0.173-2.154c-1.354,0.108-2.707,0.229-4.059,0.363c0.07,0.717,0.141,1.433,0.211,2.15
		C413.283,537.547,414.623,537.428,415.964,537.32"/>
	<path clip-path="url(#SVGID_2_)" fill="#333333" d="M429.785,539.155c-2.323,0.043-4.646,0.122-6.967,0.238
		c-0.391,0.02-0.731-0.081-1.022-0.302c-0.292-0.222-0.449-0.515-0.47-0.879c-0.177-3.139-0.354-6.277-0.532-9.417
		c-0.019-0.346,0.111-0.649,0.39-0.911c0.28-0.263,0.626-0.404,1.037-0.425c2.447-0.122,4.895-0.206,7.344-0.251
		c0.412-0.007,0.767,0.111,1.064,0.353c0.297,0.243,0.446,0.537,0.45,0.883c0.037,3.144,0.075,6.288,0.113,9.433
		c0.004,0.364-0.133,0.667-0.408,0.907C430.508,539.025,430.176,539.148,429.785,539.155 M424.156,536.785
		c1.372-0.06,2.743-0.105,4.116-0.14c-0.057-2.288-0.115-4.574-0.172-6.861c-1.414,0.035-2.828,0.084-4.242,0.146
		C423.958,532.215,424.057,534.5,424.156,536.785"/>
	<path clip-path="url(#SVGID_2_)" fill="#333333" d="M442.171,529.836c-0.979-0.035-1.957-0.064-2.936-0.088
		c-0.074,3.144-0.148,6.287-0.222,9.431c-0.957-0.022-1.913-0.038-2.87-0.049c0.032-3.144,0.064-6.288,0.098-9.432
		c-0.979-0.01-1.959-0.014-2.938-0.012c-0.002-0.839-0.004-1.678-0.006-2.516c2.989-0.007,5.977,0.044,8.964,0.151
		C442.231,528.161,442.2,528.998,442.171,529.836"/>
	<path clip-path="url(#SVGID_2_)" fill="#333333" d="M460.471,531.231c-0.974-0.114-1.947-0.221-2.923-0.322
		c-0.324,3.128-0.647,6.255-0.972,9.383c-0.952-0.099-1.906-0.191-2.861-0.277l0.85-9.396c-0.977-0.088-1.953-0.169-2.928-0.245
		c0.064-0.836,0.128-1.672,0.193-2.508c2.982,0.23,5.96,0.52,8.933,0.866C460.665,529.565,460.568,530.398,460.471,531.231"/>
	<path clip-path="url(#SVGID_2_)" fill="#333333" d="M469.674,542.045c-2.3-0.378-4.604-0.72-6.912-1.024
		c-0.388-0.051-0.705-0.212-0.953-0.482c-0.247-0.27-0.349-0.586-0.303-0.946c0.392-3.121,0.783-6.24,1.175-9.361
		c0.043-0.343,0.226-0.618,0.549-0.825c0.322-0.207,0.689-0.285,1.098-0.229c2.434,0.321,4.863,0.68,7.286,1.08
		c0.408,0.066,0.737,0.246,0.985,0.538c0.25,0.293,0.345,0.609,0.287,0.95c-0.53,3.1-1.062,6.199-1.592,9.298
		c-0.062,0.359-0.252,0.632-0.566,0.819C470.411,542.047,470.062,542.108,469.674,542.045 M464.552,538.696
		c1.362,0.189,2.724,0.392,4.084,0.605c0.355-2.26,0.713-4.519,1.068-6.777c-1.401-0.223-2.805-0.431-4.209-0.625
		C465.181,534.165,464.866,536.432,464.552,538.696"/>
	<path clip-path="url(#SVGID_2_)" fill="#333333" d="M481.049,538.63c-0.38,1.783-0.761,3.564-1.141,5.348
		c-0.941-0.2-1.884-0.395-2.826-0.584c0.356-1.786,0.714-3.575,1.07-5.362c-1.114-2.424-2.277-4.844-3.485-7.253
		c1.365,0.243,2.729,0.499,4.089,0.767c0.537,1.101,1.063,2.2,1.579,3.303c0.901-0.81,1.813-1.613,2.731-2.413
		c1.357,0.295,2.712,0.601,4.066,0.919C485.063,535.086,483.036,536.845,481.049,538.63"/>
	<path clip-path="url(#SVGID_2_)" fill="#333333" d="M501.457,541.471c0.148-0.479,0.297-0.957,0.444-1.437
		c-1.17-0.36-2.342-0.714-3.516-1.058c-0.641,2.196-1.283,4.392-1.925,6.588c1.139,0.332,2.276,0.675,3.411,1.026
		c0.147-0.479,0.297-0.958,0.444-1.438c0.941,0.292,1.882,0.591,2.82,0.894c-0.284,0.877-0.567,1.752-0.852,2.628
		c-0.112,0.346-0.341,0.589-0.683,0.728c-0.341,0.14-0.708,0.146-1.104,0.021c-2.033-0.644-4.074-1.258-6.123-1.843
		c-0.397-0.113-0.694-0.319-0.893-0.621c-0.197-0.301-0.249-0.628-0.15-0.979c0.839-3.021,1.68-6.041,2.52-9.063
		c0.098-0.351,0.316-0.606,0.658-0.767s0.723-0.181,1.143-0.061c2.157,0.615,4.311,1.264,6.455,1.943
		c0.416,0.131,0.729,0.36,0.935,0.687c0.208,0.323,0.254,0.661,0.142,1.008c-0.286,0.884-0.572,1.768-0.86,2.651
		C503.37,542.07,502.415,541.769,501.457,541.471"/>
	<path clip-path="url(#SVGID_2_)" fill="#333333" d="M512.193,553.492c-2.208-0.839-4.426-1.64-6.653-2.405
		c-0.375-0.129-0.656-0.35-0.849-0.665c-0.191-0.314-0.23-0.646-0.115-0.991c1.003-2.98,2.004-5.961,3.006-8.94
		c0.11-0.328,0.346-0.563,0.706-0.7c0.36-0.138,0.738-0.14,1.134-0.004c2.348,0.806,4.686,1.651,7.013,2.535
		c0.391,0.148,0.683,0.393,0.872,0.729c0.189,0.338,0.222,0.668,0.097,0.99c-1.135,2.932-2.271,5.864-3.406,8.796
		c-0.132,0.341-0.372,0.57-0.723,0.689C512.924,553.644,512.564,553.632,512.193,553.492 M507.771,549.169
		c1.313,0.462,2.623,0.935,3.93,1.421c0.799-2.145,1.596-4.288,2.394-6.432c-1.348-0.502-2.698-0.989-4.052-1.464
		C509.286,544.853,508.528,547.011,507.771,549.169"/>
	<path clip-path="url(#SVGID_2_)" fill="#333333" d="M519.286,553.572c-0.324,0.782-0.648,1.566-0.973,2.348
		c-0.736-0.304-1.472-0.604-2.21-0.9c0.316-0.786,0.631-1.573,0.947-2.36C517.798,552.959,518.543,553.263,519.286,553.572"/>
</g>
</svg>
